<svg xmlns="http://www.w3.org/2000/svg" viewBox="0 0 302.28 67.11"><defs><style>.cls-1{fill:#16c6b9;}.cls-2{fill:#262929;}.cls-3{fill:#201f1f;}</style></defs><title>Asset 1</title><g id="Layer_2" data-name="Layer 2"><g id="Layer_1-2" data-name="Layer 1"><polygon class="cls-1" points="80.55 0 47.01 48.26 13.45 0 0 0 47.01 67.11 94 0 80.55 0"/><polygon class="cls-2" points="80.55 0 47.01 48.26 13.45 0 26.87 0 47.01 29.44 67.13 0 80.55 0"/><path class="cls-3" d="M104.41,18.45h5l7.69,19.62,7.65-19.62h4.85L119,44.15H115Z"/><path class="cls-3" d="M133.75,18.45h4.45V44h-4.45Z"/><path class="cls-3" d="M144.73,18.45H156.1a12.4,12.4,0,0,1,4.26.68,8.54,8.54,0,0,1,3.1,1.87A7.34,7.34,0,0,1,165,23.45a8.13,8.13,0,0,1,.55,3.06v.07a8.12,8.12,0,0,1-.46,2.83,7.12,7.12,0,0,1-1.26,2.22A7.38,7.38,0,0,1,162,33.27a9.34,9.34,0,0,1-2.46,1L166.38,44h-5.29l-6.29-8.89h-5.63V44h-4.44Zm11,12.65A5.91,5.91,0,0,0,159.59,30,3.79,3.79,0,0,0,161,26.82v-.07a3.75,3.75,0,0,0-1.39-3.17,6.23,6.23,0,0,0-3.91-1.08h-6.55v8.6Z"/><path class="cls-3" d="M177.46,22.61h-8.09V18.45h20.71v4.16H182V44h-4.52Z"/><path class="cls-3" d="M205.39,44.37a13.47,13.47,0,0,1-4.49-.71,9,9,0,0,1-3.43-2.13A9.59,9.59,0,0,1,195.29,38a14.18,14.18,0,0,1-.77-4.87V18.45H199V33a7.71,7.71,0,0,0,1.72,5.43,6.18,6.18,0,0,0,4.77,1.86,6.27,6.27,0,0,0,4.73-1.78,7.4,7.4,0,0,0,1.72-5.33V18.45h4.45V32.92a14.62,14.62,0,0,1-.78,5,9.91,9.91,0,0,1-2.21,3.59,8.9,8.9,0,0,1-3.45,2.15A13.67,13.67,0,0,1,205.39,44.37Z"/><path class="cls-3" d="M231.6,44.33a16,16,0,0,1-5.65-1,15.2,15.2,0,0,1-5-3.08l2.7-3.21a15.68,15.68,0,0,0,3.75,2.46,10.24,10.24,0,0,0,4.31.86,5.56,5.56,0,0,0,3.29-.87,2.74,2.74,0,0,0,1.23-2.34v-.07a2.92,2.92,0,0,0-.24-1.22,2.61,2.61,0,0,0-.88-1,6.92,6.92,0,0,0-1.75-.88,25.18,25.18,0,0,0-2.91-.8,28.43,28.43,0,0,1-3.64-1.08,9.84,9.84,0,0,1-2.66-1.45,5.64,5.64,0,0,1-1.65-2.1,7.29,7.29,0,0,1-.56-3v-.07a6.86,6.86,0,0,1,2.44-5.34,8.25,8.25,0,0,1,2.74-1.52,10.82,10.82,0,0,1,3.49-.54,14.54,14.54,0,0,1,5,.82,14.88,14.88,0,0,1,4.21,2.39l-2.4,3.39a15.85,15.85,0,0,0-3.47-2,9.35,9.35,0,0,0-3.46-.68,4.74,4.74,0,0,0-3.06.88,2.66,2.66,0,0,0-1.1,2.15v.07a3.06,3.06,0,0,0,.26,1.29,2.47,2.47,0,0,0,.93,1,7.76,7.76,0,0,0,1.86.86c.8.27,1.8.55,3,.84A28.91,28.91,0,0,1,236,30.3a8.87,8.87,0,0,1,2.58,1.51,6,6,0,0,1,1.55,2.08,6.58,6.58,0,0,1,.53,2.75v.08a7.33,7.33,0,0,1-.67,3.2,6.77,6.77,0,0,1-1.86,2.41,8.29,8.29,0,0,1-2.86,1.5A12.64,12.64,0,0,1,231.6,44.33Z"/><path class="cls-3" d="M246.32,18.45h4.45V44h-4.45Z"/><path class="cls-3" d="M256.6,40.65l15.06-18.22H257.08v-4h20.41v3.32L262.44,40h15.05v4H256.6Z"/><path class="cls-3" d="M283.21,18.45H302.1V22.5H287.66v6.56h12.8v4.05h-12.8v6.81h14.62v4H283.21Z"/></g></g></svg>